HIERARCHY
ROOT hip
{
  OFFSET -31.4252 76.1681 237.003
  CHANNELS 6 Xposition Yposition Zposition Zrotation Xrotation Yrotation
  JOINT abdomen
  {
    OFFSET 0 20.6881 -0.73152
    CHANNELS 3 Zrotation Xrotation Yrotation
    JOINT chest
    {
      OFFSET 0 11.7043 -0.48768
      CHANNELS 3 Zrotation Xrotation Yrotation
      JOINT neck
      {
        OFFSET 0 22.1894 -2.19456
        CHANNELS 3 Zrotation Xrotation Yrotation
        JOINT head
        {
          OFFSET -0.24384 7.07133 1.2192
          CHANNELS 3 Zrotation Xrotation Yrotation
          JOINT leftEye
          {
            OFFSET 4.14528 8.04674 8.04672
            CHANNELS 3 Zrotation Xrotation Yrotation
            End Site
            {
              OFFSET 1 0 0
            }
          }
          JOINT rightEye
          {
            OFFSET -3.6576 8.04674 8.04672
            CHANNELS 3 Zrotation Xrotation Yrotation
            End Site
            {
              OFFSET 1 0 0
            }
          }
        }
      }
      JOINT rCollar
      {
        OFFSET -2.68224 19.2634 -4.8768
        CHANNELS 3 Zrotation Xrotation Yrotation
        JOINT rShldr
        {
          OFFSET -8.77824 -1.95073 1.46304
          CHANNELS 3 Zrotation Xrotation Yrotation
          JOINT rForeArm
          {
            OFFSET -28.1742 -1.7115 0.48768
            CHANNELS 3 Zrotation Xrotation Yrotation
            JOINT rHand
            {
              OFFSET -22.5879 0.773209 7.07136
              CHANNELS 3 Zrotation Xrotation Yrotation
              JOINT rThumb1
              {
                OFFSET -1.2192 -0.487915 3.41376
                CHANNELS 3 Zrotation Xrotation Yrotation
                JOINT rThumb2
                {
                  OFFSET -3.37035 -0.52449 3.41376
                  CHANNELS 3 Zrotation Xrotation Yrotation
                  End Site
                  {
                    OFFSET -1.78271 -1.18214 1.43049
                  }
                }
              }
              JOINT rIndex1
              {
                OFFSET -7.75947 0.938293 5.60832
                CHANNELS 3 Zrotation Xrotation Yrotation
                JOINT rIndex2
                {
                  OFFSET -2.54057 -0.884171 1.56538
                  CHANNELS 3 Zrotation Xrotation Yrotation
                  End Site
                  {
                    OFFSET -1.62519 -0.234802 1.16502
                  }
                }
              }
              JOINT rMid1
              {
                OFFSET -8.24714 1.18213 3.41376
                CHANNELS 3 Zrotation Xrotation Yrotation
                JOINT rMid2
                {
                  OFFSET -3.10165 -0.590103 1.0647
                  CHANNELS 3 Zrotation Xrotation Yrotation
                  End Site
                  {
                    OFFSET -2.48547 -0.328903 0.83742
                  }
                }
              }
              JOINT rRing1
              {
                OFFSET -8.82822 0.546677 1.51678
                CHANNELS 3 Zrotation Xrotation Yrotation
                JOINT rRing2
                {
                  OFFSET -2.60934 -0.819778 -0.0198488
                  CHANNELS 3 Zrotation Xrotation Yrotation
                  End Site
                  {
                    OFFSET -2.33842 -0.294052 0.168128
                  }
                }
              }
              JOINT rPinky1
              {
                OFFSET -8.27202 -0.0477905 -0.4584
                CHANNELS 3 Zrotation Xrotation Yrotation
                JOINT rPinky2
                {
                  OFFSET -1.82734 -0.647385 -0.700984
                  CHANNELS 3 Zrotation Xrotation Yrotation
                  End Site
                  {
                    OFFSET -1.69225 -0.51767 -0.607171
                  }
                }
              }
            }
          }
        }
      }
      JOINT lCollar
      {
        OFFSET 2.68224 19.2634 -4.8768
        CHANNELS 3 Zrotation Xrotation Yrotation
        JOINT lShldr
        {
          OFFSET 8.77824 -1.95073 1.46304
          CHANNELS 3 Zrotation Xrotation Yrotation
          JOINT lForeArm
          {
            OFFSET 28.1742 -1.7115 0.48768
            CHANNELS 3 Zrotation Xrotation Yrotation
            JOINT lHand
            {
              OFFSET 22.5879 0.773209 7.07136
              CHANNELS 3 Zrotation Xrotation Yrotation
              JOINT lThumb1
              {
                OFFSET 1.2192 -0.487915 3.41376
                CHANNELS 3 Zrotation Xrotation Yrotation
                JOINT lThumb2
                {
                  OFFSET 3.37035 -0.52449 3.41376
                  CHANNELS 3 Zrotation Xrotation Yrotation
                  End Site
                  {
                    OFFSET 1.78271 -1.18214 1.43049
                  }
                }
              }
              JOINT lIndex1
              {
                OFFSET 7.75947 0.938293 5.60832
                CHANNELS 3 Zrotation Xrotation Yrotation
                JOINT lIndex2
                {
                  OFFSET 2.54057 -0.884171 1.56538
                  CHANNELS 3 Zrotation Xrotation Yrotation
                  End Site
                  {
                    OFFSET 1.62519 -0.234802 1.16502
                  }
                }
              }
              JOINT lMid1
              {
                OFFSET 8.24714 1.18213 3.41376
                CHANNELS 3 Zrotation Xrotation Yrotation
                JOINT lMid2
                {
                  OFFSET 3.10165 -0.590103 1.0647
                  CHANNELS 3 Zrotation Xrotation Yrotation
                  End Site
                  {
                    OFFSET 2.48547 -0.328903 0.83742
                  }
                }
              }
              JOINT lRing1
              {
                OFFSET 8.82822 0.546677 1.51678
                CHANNELS 3 Zrotation Xrotation Yrotation
                JOINT lRing2
                {
                  OFFSET 2.60934 -0.819778 -0.0198488
                  CHANNELS 3 Zrotation Xrotation Yrotation
                  End Site
                  {
                    OFFSET 2.33842 -0.294052 0.168128
                  }
                }
              }
              JOINT lPinky1
              {
                OFFSET 8.27202 -0.0477905 -0.4584
                CHANNELS 3 Zrotation Xrotation Yrotation
                JOINT lPinky2
                {
                  OFFSET 1.82734 -0.647385 -0.700984
                  CHANNELS 3 Zrotation Xrotation Yrotation
                  End Site
                  {
                    OFFSET 1.69225 -0.51767 -0.607171
                  }
                }
              }
            }
          }
        }
      }
    }
  }
  JOINT rButtock
  {
    OFFSET -8.77824 4.35084 1.2192
    CHANNELS 3 Zrotation Xrotation Yrotation
    JOINT rThigh
    {
      OFFSET 0 -1.70687 -2.19456
      CHANNELS 3 Zrotation Xrotation Yrotation
      JOINT rShin
      {
        OFFSET 0 -36.8199 0.73152
        CHANNELS 3 Zrotation Xrotation Yrotation
        JOINT rFoot
        {
          OFFSET 0.73152 -45.1104 -5.12064
          CHANNELS 3 Zrotation Xrotation Yrotation
          End Site
          {
            OFFSET -1.1221 -3.69964 12.103
          }
        }
      }
    }
  }
  JOINT lButtock
  {
    OFFSET 8.77824 4.35084 1.2192
    CHANNELS 3 Zrotation Xrotation Yrotation
    JOINT lThigh
    {
      OFFSET 0 -1.70687 -2.19456
      CHANNELS 3 Zrotation Xrotation Yrotation
      JOINT lShin
      {
        OFFSET 0 -36.8199 0.73152
        CHANNELS 3 Zrotation Xrotation Yrotation
        JOINT lFoot
        {
          OFFSET -0.73152 -45.1104 -5.12064
          CHANNELS 3 Zrotation Xrotation Yrotation
          End Site
          {
            OFFSET 1.1221 -3.69964 12.103
          }
        }
      }
    }
  }
}
MOTION
Frames:	5
Frame Time:	0.00833333
-30.9868 85.1932 -130.044 -0.435316 -0.00123183 0.007427 0.572851 -0.00324241 0.0163888 0.15816 -0.00505484 0.0274043 4.01689e-015 -7.95139e-016 7.45442e-017 1.22594e-014 3.18055e-015 2.20527e-016 -0 0 0 -0 0 0 1.93687e-015 -2.52363e-018 2.48481e-016 4.41124e-014 1.30452e-016 1.78906e-015 7.42212e-013 -2.2085e-013 -2.22639e-014 8.45413e-012 2.19384e-013 1.81292e-013 1.99503e-011 -7.26842e-015 3.59403e-013 3.44359e-011 -1.59028e-014 6.09076e-013 1.99556e-011 -7.55382e-015 3.49861e-013 7.73091 5.47488 0.417314 1.99501e-011 -7.35503e-015 3.53042e-013 2.90554 0.965183 0.102902 1.99547e-011 -7.25564e-015 3.52246e-013 10.2786 0.731801 0.0259123 1.99465e-011 -5.1684e-015 3.62583e-013 2.22167 -0.733487 -0.20892 1.84016e-015 -3.49426e-018 -1.49089e-016 4.09896e-014 -6.21202e-017 -1.98785e-016 7.34161e-013 2.2244e-013 3.49861e-014 8.46851e-012 -2.25795e-013 1.33583e-013 1.99654e-011 -1.22608e-014 3.62583e-013 3.44935e-011 -2.54444e-014 6.22594e-013 1.99608e-011 -1.15295e-014 3.65764e-013 -7.73091 5.47488 -0.417314 1.99658e-011 -1.27222e-014 3.56222e-013 -2.90554 0.965183 -0.102902 1.99642e-011 -1.23246e-014 3.56222e-013 -10.2786 0.731801 -0.0259123 1.99745e-011 -1.03368e-014 3.435e-013 -2.22167 -0.733487 0.20892 -2.03217e-016 0 -3.88251e-019 0.920638 -4.5448 -0.0776278 -0.00189642 2.68065 -0.00764607 -0.490091 1.86453 0.0936791 2.03217e-016 0 3.88251e-019 -0.0475295 -2.33551 0.0218114 0.00803008 -1.32107 0.0687347 0.481076 3.65687 -0.128829 
-32.4483 82.7489 -141.598 -3.1268 2.48346 45.4656 1.75067 -4.64154 4.24833 -1.56362 -0.878788 0.991908 -7.30369 1.32566 0.843959 13.6114 -0.135417 2.70138 -0 0 0 -0 0 0 -4.62086e-014 5.54479e-014 -5.68683e-014 22.2348 3.33789 -2.10305 -4.80128 -2.31132 7.35303 0.0452264 4.7204 0.655303 1.29539e-009 -8.12488e-010 1.22664e-010 2.23944e-009 -1.37322e-009 1.91395e-010 1.29539e-009 -8.12489e-010 1.22657e-010 7.73091 5.47488 0.417314 1.29539e-009 -8.12488e-010 1.22659e-010 2.90554 0.965183 0.102902 1.29539e-009 -8.12487e-010 1.2266e-010 10.2786 0.731801 0.0259123 1.29539e-009 -8.12484e-010 1.22669e-010 2.22167 -0.733487 -0.20892 -4.63054e-014 5.54446e-014 -5.72115e-014 -21.1314 11.681 1.45447 4.77911 -2.29574 -7.32489 -0.202236 -10.0074 1.3303 4.33027e-010 4.92818e-010 -5.61628e-010 7.63388e-010 8.56306e-010 -9.58415e-010 4.33023e-010 4.92819e-010 -5.61623e-010 -7.73091 5.47488 -0.417314 4.33027e-010 4.92818e-010 -5.61633e-010 -2.90554 0.965183 -0.102902 4.33025e-010 4.92818e-010 -5.61632e-010 -10.2786 0.731801 -0.0259123 4.33035e-010 4.92819e-010 -5.61644e-010 -2.22167 -0.733487 0.20892 -2.03217e-016 0 -3.88251e-019 1.32694 -9.5817 -5.72199 -0.00309105 8.63307 0.0626409 0.119678 -3.2957 5.67316 2.03217e-016 0 3.88251e-019 0.930758 -9.30508 1.0793 0.018538 6.09263 -0.0180625 0.0296739 -0.893053 -5.09178 
-32.5011 82.7497 -141.602 -8.05266 -0.431847 93.3818 3.75033 -9.45878 8.82122 -3.35594 -1.80034 2.01423 -15.0601 2.70459 1.74688 28.0089 -0.255703 5.57714 -0 0 0 -0 0 0 -9.93646e-014 1.13408e-013 -1.19703e-013 46.014 6.85114 -4.35901 -9.23829 -4.62844 15.1656 -0.0258957 9.70467 1.36247 2.7187e-009 -1.71938e-009 2.58476e-010 4.70014e-009 -2.90602e-009 4.03109e-010 2.7187e-009 -1.71938e-009 2.58473e-010 7.73091 5.47488 0.417314 2.7187e-009 -1.71938e-009 2.58472e-010 2.90554 0.965183 0.102902 2.71871e-009 -1.71938e-009 2.58476e-010 10.2786 0.731801 0.0259123 2.7187e-009 -1.71937e-009 2.58483e-010 2.22167 -0.733487 -0.20892 -9.94638e-014 1.13402e-013 -1.19988e-013 -44.1634 23.9956 3.203 9.19297 -4.59321 -15.0974 0.120131 -20.5381 2.87449 8.8598e-010 1.03349e-009 -1.17914e-009 1.56267e-009 1.79576e-009 -2.01219e-009 8.85977e-010 1.03349e-009 -1.17913e-009 -7.73091 5.47488 -0.417314 8.85979e-010 1.03349e-009 -1.17914e-009 -2.90554 0.965183 -0.102902 8.85978e-010 1.03349e-009 -1.17914e-009 -10.2786 0.731801 -0.0259123 8.85986e-010 1.03349e-009 -1.17915e-009 -2.22167 -0.733487 0.20892 -2.03217e-016 0 -3.88251e-019 0.652161 -14.6955 -11.9219 -0.020771 14.9266 0.140197 1.86092 -8.60478 11.6878 2.03217e-016 0 3.88251e-019 2.25798 -16.6642 2.26453 0.0545578 13.9289 -0.112888 -1.30317 -5.61691 -10.3886 
-32.5559 82.7466 -141.592 -8.33586 -7.64533 135.723 6.1932 -13.6099 13.0428 -4.9189 -2.62323 2.92363 -22.0284 3.97351 2.5373 40.8722 -0.402642 8.10433 -0 0 0 -0 0 0 -1.425e-013 1.66349e-013 -1.71102e-013 67.4474 9.9593 -6.39522 -12.6635 -6.47814 22.1902 -0.19681 14.1537 2.0206 3.84627e-009 -2.43745e-009 3.67273e-010 6.64946e-009 -4.11963e-009 5.72967e-010 3.84627e-009 -2.43745e-009 3.67272e-010 7.73091 5.47488 0.417314 3.84626e-009 -2.43745e-009 3.6727e-010 2.90554 0.965183 0.102902 3.84627e-009 -2.43745e-009 3.67276e-010 10.2786 0.731801 0.0259123 3.84627e-009 -2.43744e-009 3.67282e-010 2.22167 -0.733487 -0.20892 -1.42596e-013 1.66341e-013 -1.71336e-013 -65.5032 34.9423 5.21511 12.6151 -6.43794 -22.1036 0.968523 -29.9522 4.53718 1.25915e-009 1.47848e-009 -1.68561e-009 2.22118e-009 2.56897e-009 -2.87649e-009 1.25915e-009 1.47848e-009 -1.6856e-009 -7.73091 5.47488 -0.417314 1.25915e-009 1.47848e-009 -1.68561e-009 -2.90554 0.965183 -0.102902 1.25915e-009 1.47848e-009 -1.68561e-009 -10.2786 0.731801 -0.0259123 1.25916e-009 1.47848e-009 -1.68562e-009 -2.22167 -0.733487 0.20892 -2.03217e-016 0 -3.88251e-019 -0.935877 -18.9219 -17.7599 -0.0518849 20.5378 0.214716 4.37197 -13.0707 17.2648 2.03217e-016 0 3.88251e-019 3.71859 -23.2119 3.42961 0.110104 20.9199 -0.204816 -3.23468 -9.65859 -15.2375 
-32.5993 82.7453 -141.591 -4.22952 -12.5551 165.704 8.25536 -16.391 16.0701 -5.97086 -3.20235 3.54818 -26.9443 4.97072 3.04155 49.882 -0.618489 9.76008 -0 0 0 -0 0 0 -1.60582e-013 2.0674e-013 -1.93914e-013 82.4846 12.1075 -7.79937 -14.7716 -7.59424 27.1199 -0.380426 17.2716 2.50447 4.23447e-009 -2.68346e-009 4.08533e-010 7.32037e-009 -4.53531e-009 6.38184e-010 4.23447e-009 -2.68346e-009 4.08533e-010 7.73091 5.47488 0.417314 4.23447e-009 -2.68346e-009 4.0853e-010 2.90554 0.965183 0.102902 4.23448e-009 -2.68346e-009 4.08537e-010 10.2786 0.731801 0.0259123 4.23447e-009 -2.68345e-009 4.08542e-010 2.22167 -0.733487 -0.20892 -1.60665e-013 2.06731e-013 -1.94113e-013 -81.0572 42.56 7.11421 14.7484 -7.5745 -27.0724 1.98805 -36.6387 5.99964 1.43286e-009 1.68428e-009 -1.91448e-009 2.52774e-009 2.92658e-009 -3.2671e-009 1.43286e-009 1.68428e-009 -1.91447e-009 -7.73091 5.47488 -0.417314 1.43286e-009 1.68428e-009 -1.91449e-009 -2.90554 0.965183 -0.102902 1.43286e-009 1.68428e-009 -1.91448e-009 -10.2786 0.731801 -0.0259123 1.43287e-009 1.68428e-009 -1.91449e-009 -2.22167 -0.733487 0.20892 -2.03217e-016 0 -3.88251e-019 -2.60321 -21.599 -22.0341 -0.0829696 24.443 0.27114 6.65652 -15.9607 21.3101 2.03217e-016 0 3.88251e-019 4.90459 -27.7611 4.32809 0.163697 25.798 -0.275904 -4.99613 -12.3319 -18.7196 
